<svg xmlns="http://www.w3.org/2000/svg" width="60" height="60" viewBox="0 0 60 60"><g transform="translate(-6 -6)"><path d="M66,57.667A8.332,8.332,0,0,1,57.667,66H14.333A8.333,8.333,0,0,1,6,57.667V14.333A8.333,8.333,0,0,1,14.333,6H57.667A8.332,8.332,0,0,1,66,14.333Z" transform="translate(0)" fill="#673ab7"/><path d="M45.885,34.352a8.47,8.47,0,0,0-4.8-3.041,7.649,7.649,0,0,0,3.323-2.876,9.369,9.369,0,0,0,1.422-5.226,9.262,9.262,0,0,0-4.008-8.1C39.153,13.249,36.138,12,31.016,12H15V51.444H32.866c4.848-.033,8.5-1.035,10.98-2.958,2.467-1.956,3.7-4.848,3.7-8.711A8.754,8.754,0,0,0,45.885,34.352ZM25.278,18.574h7.28a4.524,4.524,0,1,1,0,9.039h-7.28Zm8.565,26.3H25.278V35.009h8.565a4.935,4.935,0,1,1,0,9.861Z" transform="translate(5.534 4.278)" fill="#fff"/></g></svg>