<svg xmlns="http://www.w3.org/2000/svg" width="60.164" height="67.242" viewBox="0 0 60.164 67.242"><g transform="translate(-7 -5)"><path d="M67.164,5H7l5.309,60.164,24.773,7.078,24.773-7.078L67.164,5Z" transform="translate(0)" fill="#0277bd"/><path d="M24,8V64.448l19.819-5.662L48.242,8Z" transform="translate(13.082 2.309)" fill="#039be5"/><path d="M40.1,13H24v7.078h8.671l-.531,7.078H24v7.078h7.786L31.255,42.2,24,44.674v7.432l13.979-4.6,1.239-20.349h0Z" transform="translate(13.082 6.156)" fill="#fff"/><path d="M31.08,13v7.078H15.331L14.8,13ZM22.94,27.156l.354,7.078H31.08V27.156Zm.708,10.617H16.57l.531,9.732,13.979,4.6V44.674L23.825,42.2Z" transform="translate(6.002 6.156)" fill="#eee"/></g></svg>