<svg xmlns="http://www.w3.org/2000/svg" width="60" height="60" viewBox="0 0 60 60"><g transform="translate(-421 -844)"><rect width="60" height="60" rx="13" transform="translate(421 844)" fill="#f7df1e"/><path d="M136.9,219.6a5.417,5.417,0,0,0,4.924,3.038c2.1,0,3.457-1.048,3.457-2.514,0-1.676-1.362-2.3-3.667-3.352l-1.257-.524c-3.667-1.572-6.076-3.457-6.076-7.543,0-3.772,2.829-6.705,7.334-6.705,3.248,0,5.553,1.152,7.124,4.086l-3.876,2.514c-.838-1.571-1.781-2.2-3.248-2.2a2.207,2.207,0,0,0-2.41,2.2c0,1.467.943,2.1,3.143,3.038l1.257.524c4.3,1.886,6.705,3.667,6.705,7.962,0,4.5-3.562,7.019-8.381,7.019-4.714,0-7.753-2.2-9.219-5.134Zm-17.81.419c.838,1.362,1.467,2.619,3.248,2.619,1.676,0,2.724-.629,2.724-3.143V202.1h5.029v17.182c0,5.238-3.038,7.543-7.543,7.543A7.718,7.718,0,0,1,115,222.22Z" transform="translate(326.407 671.836)"/></g></svg>