<svg xmlns="http://www.w3.org/2000/svg" width="33" height="32.998" viewBox="0 0 33 32.998"><path d="M35.96,28.9a4.013,4.013,0,0,0-2.114-.773,3.146,3.146,0,0,1-1.942-.859,2.382,2.382,0,0,1,0-3.764l2.6-2.312a8.366,8.366,0,0,0,0-12.821A16.521,16.521,0,0,0,23.526,4.5,20.774,20.774,0,0,0,9.88,9.665a15.056,15.056,0,0,0,0,23.073A20.119,20.119,0,0,0,23.019,37.5h.146A19.339,19.339,0,0,0,35.952,33,2.9,2.9,0,0,0,35.96,28.9ZM9.313,17.562a2.75,2.75,0,1,1,2.75,2.75A2.747,2.747,0,0,1,9.313,17.562ZM12.75,28.389a2.75,2.75,0,1,1,2.75-2.75A2.747,2.747,0,0,1,12.75,28.389Zm5.5-13.835A2.75,2.75,0,1,1,21,11.8,2.747,2.747,0,0,1,18.25,14.554Zm6.187,18.819a4.125,4.125,0,1,1,4.125-4.125A4.126,4.126,0,0,1,24.437,33.373ZM26.5,15.5a2.75,2.75,0,1,1,2.75-2.75A2.747,2.747,0,0,1,26.5,15.5Z" transform="translate(-4.498 -4.5)" fill="#ec6347"/></svg>