<svg xmlns="http://www.w3.org/2000/svg" width="49.845" height="42.004" viewBox="0 0 49.845 42.004"><g transform="translate(-322.155 -729.748)"><g transform="translate(323.655 731.248)"><path d="M22.458,17.979A4.479,4.479,0,1,1,17.979,13.5,4.479,4.479,0,0,1,22.458,17.979Z" transform="translate(-1.556 -1.556)" fill="none" stroke="#ec6347" stroke-linecap="round" stroke-linejoin="round" stroke-width="3"/><path d="M28.972,22.4a2.464,2.464,0,0,0,.493,2.717l.09.09a2.988,2.988,0,1,1-4.225,4.225l-.09-.09a2.484,2.484,0,0,0-4.21,1.762v.254a2.986,2.986,0,1,1-5.972,0v-.134a2.463,2.463,0,0,0-1.612-2.254,2.463,2.463,0,0,0-2.717.493l-.09.09a2.988,2.988,0,1,1-4.225-4.225l.09-.09a2.484,2.484,0,0,0-1.762-4.21H4.486a2.986,2.986,0,0,1,0-5.972H4.62a2.463,2.463,0,0,0,2.254-1.612,2.463,2.463,0,0,0-.493-2.717l-.09-.09a2.988,2.988,0,1,1,4.225-4.225l.09.09a2.463,2.463,0,0,0,2.717.493h.119A2.463,2.463,0,0,0,14.937,4.74V4.486a2.986,2.986,0,1,1,5.972,0V4.62a2.484,2.484,0,0,0,4.21,1.762l.09-.09a2.988,2.988,0,1,1,4.225,4.225l-.09.09a2.463,2.463,0,0,0-.493,2.717v.119a2.463,2.463,0,0,0,2.254,1.493h.254a2.986,2.986,0,1,1,0,5.972h-.134A2.464,2.464,0,0,0,28.972,22.4Z" transform="translate(-1.5 -1.5)" fill="none" stroke="#ec6347" stroke-linecap="round" stroke-linejoin="round" stroke-width="3"/></g><path d="M32.807,21.776a10.461,10.461,0,0,0,.085-1.673c0-.586-.085-1.087-.085-1.673L36.4,15.67a.768.768,0,0,0,.171-1.087L33.149,8.812a.833.833,0,0,0-1.027-.335L27.844,10.15a12.451,12.451,0,0,0-2.908-1.673l-.6-4.433a.917.917,0,0,0-.856-.669H16.638a.917.917,0,0,0-.855.669L15.1,8.477a14.487,14.487,0,0,0-2.909,1.673L7.912,8.477a.8.8,0,0,0-1.027.335L3.463,14.583a1.01,1.01,0,0,0,.171,1.087l3.679,2.76c0,.586-.085,1.087-.085,1.673s.085,1.087.085,1.673l-3.592,2.76a.768.768,0,0,0-.171,1.087l3.422,5.771A.833.833,0,0,0,8,31.729l4.277-1.673a12.449,12.449,0,0,0,2.908,1.673l.684,4.433a.829.829,0,0,0,.855.669h6.844a.917.917,0,0,0,.856-.669l.685-4.433a14.478,14.478,0,0,0,2.908-1.673l4.277,1.673a.8.8,0,0,0,1.027-.335l3.422-5.772a1.009,1.009,0,0,0-.171-1.087ZM20.06,25.958a5.856,5.856,0,1,1,0-11.709,5.856,5.856,0,1,1,0,11.709Z" transform="translate(335.169 734.921)" fill="#ec6347"/></g></svg>