<svg xmlns="http://www.w3.org/2000/svg" width="42.167" height="32.679" viewBox="0 0 42.167 32.679"><path d="M41.4,15.572l-3.727-3.3a2.818,2.818,0,0,0-1.864-.683h-4.18V5.751a3.748,3.748,0,0,0-3.953-3.5H14.495a3.748,3.748,0,0,0-3.953,3.5v5.836H6.362A2.819,2.819,0,0,0,4.5,12.27l-3.727,3.3A2.208,2.208,0,0,0,0,17.223v6.035H10.542V22.091a1.249,1.249,0,0,1,1.318-1.167h2.635a1.249,1.249,0,0,1,1.318,1.167v1.167H26.354V22.091a1.249,1.249,0,0,1,1.318-1.167h2.635a1.249,1.249,0,0,1,1.318,1.167v1.167H42.167V17.222A2.207,2.207,0,0,0,41.4,15.572ZM26.354,11.587H15.813V6.918H26.354Zm5.271,15.172a1.249,1.249,0,0,1-1.318,1.167H27.672a1.249,1.249,0,0,1-1.318-1.167V25.592H15.813v1.167a1.249,1.249,0,0,1-1.318,1.167H11.859a1.249,1.249,0,0,1-1.318-1.167V25.592H0v7a2.5,2.5,0,0,0,2.635,2.334h36.9a2.5,2.5,0,0,0,2.635-2.334v-7H31.625Z" transform="translate(0 -2.25)" fill="#ec6347"/></svg>