<svg xmlns="http://www.w3.org/2000/svg" width="60" height="60" viewBox="0 0 60 60"><path d="M7.058,20.087,19.337,53.716A25.741,25.741,0,0,1,7.058,20.087Zm40.875,9.181a13.572,13.572,0,0,0-2.117-7.1c-1.306-2.117-2.528-3.919-2.528-6.036a4.454,4.454,0,0,1,4.319-4.573c.109,0,.218.012.339.024A25.732,25.732,0,0,0,9.054,16.421c.6.024,1.173.036,1.657.036,2.685,0,6.859-.327,6.859-.327a1.062,1.062,0,0,1,.169,2.117s-1.391.157-2.94.242l9.375,27.871,5.637-16.887-4-10.984c-1.391-.085-2.7-.242-2.7-.242a1.062,1.062,0,0,1,.157-2.117s4.246.327,6.774.327c2.685,0,6.859-.327,6.859-.327a1.062,1.062,0,0,1,.169,2.117s-1.391.157-2.94.242l9.3,27.665L46,37.579C47.087,34.022,47.933,31.47,47.933,29.268ZM31.01,32.813l-7.718,22.44a25.643,25.643,0,0,0,15.81-.411,1.928,1.928,0,0,1-.181-.351L31.01,32.812Zm22.137-14.6a20.048,20.048,0,0,1,.169,2.649,24.177,24.177,0,0,1-1.96,9.218l-7.863,22.73a25.761,25.761,0,0,0,9.653-34.6Zm7.415,12.351a30,30,0,1,1-30-30A30.034,30.034,0,0,1,60.563,30.562Zm-1.379,0A28.621,28.621,0,1,0,30.562,59.183,28.655,28.655,0,0,0,59.183,30.562Z" transform="translate(-0.563 -0.563)" fill="#2699fb"/></svg>